<svg xmlns="http://www.w3.org/2000/svg" viewBox="-35.61 -687.95 3939.86 727.95" role="img" aria-label="AVALIX"><path d="M728.03 0L509.77 0L482.42-70.80L270.51-70.80L315.43-199.22L432.62-199.22L259.28-647.95L469.73-647.95L728.03 0M212.89 0L4.39 0L235.84-618.65L331.54-361.33L212.89 0M1164.06 0L954.10 0L719.73-647.95L939.94-647.95L1164.06 0M1414.55-647.95L1190.43-19.53L1093.26-304.69L1197.75-647.95L1414.55-647.95M2129.88 0L1911.62 0L1884.28-70.80L1672.36-70.80L1717.29-199.22L1834.47-199.22L1661.13-647.95L1871.58-647.95L2129.88 0M1614.75 0L1406.25 0L1637.70-618.65L1733.40-361.33L1614.75 0M2407.23 0L2191.41 0L2191.41-647.95L2407.23-647.95L2407.23 0M2744.14 0L2441.41 0L2441.41-129.39L2548.34-129.39L2548.34-211.43L2744.14-211.43L2744.14 0M3148.93 0L2803.22 0L2803.22-138.18L2868.16-138.18L2868.16-510.25L2803.22-510.25L2803.22-647.95L3148.93-647.95L3148.93-510.25L3083.98-510.25L3083.98-138.18L3148.93-138.18L3148.93 0M3864.26 0L3628.91 0L3196.78-647.95L3429.69-647.95L3864.26 0M3854.98-647.95L3663.09-354.98L3547.85-523.44L3623.54-647.95L3854.98-647.95M3430.18 0L3183.59 0L3390.14-301.76L3505.86-125.98" fill="#ECE3FA"/></svg>
